<?xml version="1.0" standalone="no"?>
<!DOCTYPE svg PUBLIC "-//W3C//DTD SVG 20010904//EN"
 "http://www.w3.org/TR/2001/REC-SVG-20010904/DTD/svg10.dtd">
<svg version="1.0" xmlns="http://www.w3.org/2000/svg"
 width="512.000000pt" height="512.000000pt" viewBox="0 0 512.000000 512.000000"
 preserveAspectRatio="xMidYMid meet">
<metadata>
Created by potrace 1.14, written by Peter Selinger 2001-2017
</metadata>
<g transform="translate(0.000000,512.000000) scale(0.100000,-0.100000)"
fill="#000000" stroke="none">
<path d="M1475 5106 c-94 -31 -163 -83 -198 -151 -9 -16 -53 -66 -98 -110 -91
-89 -121 -143 -121 -215 1 -55 41 -183 80 -255 l27 -49 60 -1 c33 0 65 1 71 3
8 2 12 34 12 87 1 110 20 150 113 243 l73 72 60 1 c34 0 86 8 116 18 95 32
115 7 115 -143 -1 -162 -19 -207 -249 -606 -214 -373 -212 -369 -230 -454 -43
-209 77 -423 279 -500 22 -8 135 -42 250 -76 337 -99 310 -88 324 -126 15 -41
65 -93 103 -106 l28 -10 0 -636 c0 -351 0 -902 0 -1226 0 -324 -2 -591 -5
-594 -3 -3 -78 -6 -168 -7 -170 -1 -190 -5 -224 -49 l-19 -24 -477 0 c-263 0
-481 -3 -485 -6 -10 -11 32 -39 86 -58 52 -19 217 -53 302 -63 80 -9 119 -14
170 -20 43 -5 89 -9 240 -20 195 -15 398 -20 780 -20 437 0 694 9 895 31 28 3
73 7 100 9 132 12 217 25 394 60 74 14 174 60 169 77 -3 8 -208 11 -698 11
-382 -1 -685 3 -673 8 12 4 27 17 33 29 8 15 11 367 11 1250 0 1091 2 1231 15
1245 16 16 33 21 102 30 110 14 133 19 213 46 47 16 126 50 175 77 89 48 162
79 206 87 13 3 34 7 48 10 33 7 177 7 215 0 50 -9 127 -36 180 -63 55 -27 76
-42 210 -147 105 -83 128 -98 104 -69 -9 10 -107 136 -219 279 -112 143 -238
303 -280 355 -288 357 -645 566 -1100 645 -19 4 -102 8 -185 10 -123 4 -162 1
-215 -13 -215 -60 -363 -191 -443 -394 -15 -36 -27 -72 -27 -80 0 -7 -5 -30
-11 -50 -10 -38 -41 -57 -79 -49 -45 9 -96 94 -92 154 3 37 11 53 208 392 213
370 198 341 222 410 55 160 48 288 -27 502 -56 161 -78 201 -125 232 -37 24
-48 26 -170 28 -87 2 -144 -2 -171 -11z m1093 -2364 l42 -22 0 -1224 c0 -970
-3 -1225 -12 -1228 -7 -2 -53 -4 -103 -3 l-90 1 -1 1228 -1 1227 38 19 c21 11
40 24 44 29 6 11 19 7 83 -27z"/>
</g>
</svg>
